<mxfile host="Electron" modified="2023-07-06T11:57:02.960Z" agent="Mozilla/5.0 (Windows NT 10.0; Win64; x64) AppleWebKit/537.36 (KHTML, like Gecko) draw.io/21.5.0 Chrome/112.0.5615.204 Electron/24.5.1 Safari/537.36" etag="fDcOUd-X5WYI9k5SRTXX" version="21.5.0" type="device">
  <diagram name="第 1 页" id="4mdqMoitLNmamL49rpm4">
    <mxGraphModel dx="1430" dy="831" grid="1" gridSize="10" guides="1" tooltips="1" connect="1" arrows="1" fold="1" page="1" pageScale="1" pageWidth="1169" pageHeight="827" math="0" shadow="0">
      <root>
        <mxCell id="0" />
        <mxCell id="1" parent="0" />
        <mxCell id="StxeraYVBeR2UehlivjP-1" value="" style="shape=trapezoid;perimeter=trapezoidPerimeter;whiteSpace=wrap;html=1;fixedSize=1;rotation=90;" vertex="1" parent="1">
          <mxGeometry x="167" y="249" width="100" height="25" as="geometry" />
        </mxCell>
        <mxCell id="StxeraYVBeR2UehlivjP-6" value="&lt;font style=&quot;font-size: 10px;&quot;&gt;pc_x_q+32&#39;d8&lt;/font&gt;" style="text;strokeColor=none;align=center;fillColor=none;html=1;verticalAlign=middle;whiteSpace=wrap;rounded=0;" vertex="1" parent="1">
          <mxGeometry x="136" y="265.5" width="70" height="13.5" as="geometry" />
        </mxCell>
        <mxCell id="StxeraYVBeR2UehlivjP-7" value="&lt;p style=&quot;line-height: 100%;&quot;&gt;0&lt;br&gt;&lt;br&gt;&lt;br&gt;1&lt;/p&gt;" style="text;strokeColor=none;align=center;fillColor=none;html=1;verticalAlign=middle;whiteSpace=wrap;rounded=0;" vertex="1" parent="1">
          <mxGeometry x="206" y="236.5" width="10" height="50" as="geometry" />
        </mxCell>
        <mxCell id="StxeraYVBeR2UehlivjP-8" value="&lt;font style=&quot;font-size: 10px;&quot;&gt;pc_x_q+32&#39;d4&lt;/font&gt;" style="text;strokeColor=none;align=center;fillColor=none;html=1;verticalAlign=middle;whiteSpace=wrap;rounded=0;" vertex="1" parent="1">
          <mxGeometry x="135" y="229.5" width="70" height="13.5" as="geometry" />
        </mxCell>
        <mxCell id="StxeraYVBeR2UehlivjP-9" value="" style="endArrow=none;html=1;rounded=0;exitX=0.525;exitY=0;exitDx=0;exitDy=0;exitPerimeter=0;" edge="1" parent="1" source="StxeraYVBeR2UehlivjP-1">
          <mxGeometry width="50" height="50" relative="1" as="geometry">
            <mxPoint x="224" y="304" as="sourcePoint" />
            <mxPoint x="364" y="264" as="targetPoint" />
          </mxGeometry>
        </mxCell>
        <mxCell id="StxeraYVBeR2UehlivjP-11" value="" style="endArrow=none;html=1;rounded=0;entryX=1;entryY=0.5;entryDx=0;entryDy=0;" edge="1" parent="1" target="StxeraYVBeR2UehlivjP-1">
          <mxGeometry width="50" height="50" relative="1" as="geometry">
            <mxPoint x="217" y="334" as="sourcePoint" />
            <mxPoint x="254" y="294" as="targetPoint" />
          </mxGeometry>
        </mxCell>
        <mxCell id="StxeraYVBeR2UehlivjP-12" value="&lt;font style=&quot;font-size: 10px;&quot;&gt;dual_issue_w&lt;/font&gt;" style="text;strokeColor=none;align=center;fillColor=none;html=1;verticalAlign=middle;whiteSpace=wrap;rounded=0;" vertex="1" parent="1">
          <mxGeometry x="172" y="334" width="90" height="20" as="geometry" />
        </mxCell>
        <mxCell id="StxeraYVBeR2UehlivjP-13" value="" style="shape=trapezoid;perimeter=trapezoidPerimeter;whiteSpace=wrap;html=1;fixedSize=1;rotation=90;" vertex="1" parent="1">
          <mxGeometry x="327" y="271.5" width="100" height="25" as="geometry" />
        </mxCell>
        <mxCell id="StxeraYVBeR2UehlivjP-14" value="&lt;p style=&quot;line-height: 100%;&quot;&gt;0&lt;br&gt;&lt;br&gt;&lt;br&gt;1&lt;/p&gt;" style="text;strokeColor=none;align=center;fillColor=none;html=1;verticalAlign=middle;whiteSpace=wrap;rounded=0;" vertex="1" parent="1">
          <mxGeometry x="366" y="259" width="10" height="50" as="geometry" />
        </mxCell>
        <mxCell id="StxeraYVBeR2UehlivjP-16" value="" style="endArrow=none;html=1;rounded=0;entryX=1;entryY=0.5;entryDx=0;entryDy=0;" edge="1" parent="1" target="StxeraYVBeR2UehlivjP-13">
          <mxGeometry width="50" height="50" relative="1" as="geometry">
            <mxPoint x="377" y="356.5" as="sourcePoint" />
            <mxPoint x="414" y="316.5" as="targetPoint" />
          </mxGeometry>
        </mxCell>
        <mxCell id="StxeraYVBeR2UehlivjP-18" value="" style="endArrow=none;html=1;rounded=0;" edge="1" parent="1">
          <mxGeometry width="50" height="50" relative="1" as="geometry">
            <mxPoint x="274" y="304" as="sourcePoint" />
            <mxPoint x="364" y="304" as="targetPoint" />
            <Array as="points" />
          </mxGeometry>
        </mxCell>
        <mxCell id="StxeraYVBeR2UehlivjP-19" value="&lt;font style=&quot;font-size: 10px;&quot;&gt;branch_d_exec0_pc_i[31:0]&lt;/font&gt;" style="text;strokeColor=none;align=center;fillColor=none;html=1;verticalAlign=middle;whiteSpace=wrap;rounded=0;" vertex="1" parent="1">
          <mxGeometry x="239" y="284.5" width="122" height="20" as="geometry" />
        </mxCell>
        <mxCell id="StxeraYVBeR2UehlivjP-20" value="&lt;font style=&quot;font-size: 10px;&quot;&gt;branch_d_exec0_request_i&lt;/font&gt;" style="text;strokeColor=none;align=center;fillColor=none;html=1;verticalAlign=middle;whiteSpace=wrap;rounded=0;" vertex="1" parent="1">
          <mxGeometry x="309" y="353" width="122" height="20" as="geometry" />
        </mxCell>
        <mxCell id="StxeraYVBeR2UehlivjP-21" value="" style="endArrow=none;html=1;rounded=0;exitX=0.525;exitY=0;exitDx=0;exitDy=0;exitPerimeter=0;" edge="1" parent="1">
          <mxGeometry width="50" height="50" relative="1" as="geometry">
            <mxPoint x="390" y="283.5" as="sourcePoint" />
            <mxPoint x="524" y="283.5" as="targetPoint" />
          </mxGeometry>
        </mxCell>
        <mxCell id="StxeraYVBeR2UehlivjP-22" value="" style="shape=trapezoid;perimeter=trapezoidPerimeter;whiteSpace=wrap;html=1;fixedSize=1;rotation=90;" vertex="1" parent="1">
          <mxGeometry x="487" y="291" width="100" height="25" as="geometry" />
        </mxCell>
        <mxCell id="StxeraYVBeR2UehlivjP-23" value="&lt;p style=&quot;line-height: 100%;&quot;&gt;0&lt;br&gt;&lt;br&gt;&lt;br&gt;1&lt;/p&gt;" style="text;strokeColor=none;align=center;fillColor=none;html=1;verticalAlign=middle;whiteSpace=wrap;rounded=0;" vertex="1" parent="1">
          <mxGeometry x="526" y="278.5" width="10" height="50" as="geometry" />
        </mxCell>
        <mxCell id="StxeraYVBeR2UehlivjP-24" value="" style="endArrow=none;html=1;rounded=0;entryX=1;entryY=0.5;entryDx=0;entryDy=0;" edge="1" parent="1" target="StxeraYVBeR2UehlivjP-22">
          <mxGeometry width="50" height="50" relative="1" as="geometry">
            <mxPoint x="537" y="376" as="sourcePoint" />
            <mxPoint x="574" y="336" as="targetPoint" />
          </mxGeometry>
        </mxCell>
        <mxCell id="StxeraYVBeR2UehlivjP-25" value="" style="endArrow=none;html=1;rounded=0;" edge="1" parent="1">
          <mxGeometry width="50" height="50" relative="1" as="geometry">
            <mxPoint x="434" y="323.5" as="sourcePoint" />
            <mxPoint x="524" y="323.5" as="targetPoint" />
            <Array as="points" />
          </mxGeometry>
        </mxCell>
        <mxCell id="StxeraYVBeR2UehlivjP-26" value="&lt;font style=&quot;font-size: 10px;&quot;&gt;branch_d_exec1_pc_i[31:0]&lt;/font&gt;" style="text;strokeColor=none;align=center;fillColor=none;html=1;verticalAlign=middle;whiteSpace=wrap;rounded=0;" vertex="1" parent="1">
          <mxGeometry x="399" y="304" width="122" height="20" as="geometry" />
        </mxCell>
        <mxCell id="StxeraYVBeR2UehlivjP-27" value="&lt;font style=&quot;font-size: 10px;&quot;&gt;branch_d_exec1_request_i&lt;/font&gt;" style="text;strokeColor=none;align=center;fillColor=none;html=1;verticalAlign=middle;whiteSpace=wrap;rounded=0;" vertex="1" parent="1">
          <mxGeometry x="469" y="372.5" width="122" height="20" as="geometry" />
        </mxCell>
        <mxCell id="StxeraYVBeR2UehlivjP-28" value="" style="endArrow=none;html=1;rounded=0;exitX=0.525;exitY=0;exitDx=0;exitDy=0;exitPerimeter=0;" edge="1" parent="1">
          <mxGeometry width="50" height="50" relative="1" as="geometry">
            <mxPoint x="550" y="304.5" as="sourcePoint" />
            <mxPoint x="684" y="304.5" as="targetPoint" />
          </mxGeometry>
        </mxCell>
        <mxCell id="StxeraYVBeR2UehlivjP-29" value="" style="shape=trapezoid;perimeter=trapezoidPerimeter;whiteSpace=wrap;html=1;fixedSize=1;rotation=90;" vertex="1" parent="1">
          <mxGeometry x="647" y="312" width="100" height="25" as="geometry" />
        </mxCell>
        <mxCell id="StxeraYVBeR2UehlivjP-30" value="&lt;p style=&quot;line-height: 100%;&quot;&gt;0&lt;br&gt;&lt;br&gt;&lt;br&gt;1&lt;/p&gt;" style="text;strokeColor=none;align=center;fillColor=none;html=1;verticalAlign=middle;whiteSpace=wrap;rounded=0;" vertex="1" parent="1">
          <mxGeometry x="686" y="299.5" width="10" height="50" as="geometry" />
        </mxCell>
        <mxCell id="StxeraYVBeR2UehlivjP-31" value="" style="endArrow=none;html=1;rounded=0;entryX=1;entryY=0.5;entryDx=0;entryDy=0;" edge="1" parent="1" target="StxeraYVBeR2UehlivjP-29">
          <mxGeometry width="50" height="50" relative="1" as="geometry">
            <mxPoint x="697" y="397" as="sourcePoint" />
            <mxPoint x="734" y="357" as="targetPoint" />
          </mxGeometry>
        </mxCell>
        <mxCell id="StxeraYVBeR2UehlivjP-32" value="" style="endArrow=none;html=1;rounded=0;" edge="1" parent="1">
          <mxGeometry width="50" height="50" relative="1" as="geometry">
            <mxPoint x="594" y="344.5" as="sourcePoint" />
            <mxPoint x="684" y="344.5" as="targetPoint" />
            <Array as="points" />
          </mxGeometry>
        </mxCell>
        <mxCell id="StxeraYVBeR2UehlivjP-33" value="&lt;font style=&quot;font-size: 10px;&quot;&gt;branch_csr_pc_i[31:0]&lt;/font&gt;" style="text;strokeColor=none;align=center;fillColor=none;html=1;verticalAlign=middle;whiteSpace=wrap;rounded=0;" vertex="1" parent="1">
          <mxGeometry x="586" y="326" width="95" height="20" as="geometry" />
        </mxCell>
        <mxCell id="StxeraYVBeR2UehlivjP-34" value="&lt;span style=&quot;font-size: 10px;&quot;&gt;branch_csr_request_i&lt;/span&gt;" style="text;strokeColor=none;align=center;fillColor=none;html=1;verticalAlign=middle;whiteSpace=wrap;rounded=0;" vertex="1" parent="1">
          <mxGeometry x="629" y="393.5" width="122" height="20" as="geometry" />
        </mxCell>
        <mxCell id="StxeraYVBeR2UehlivjP-35" value="D" style="rounded=1;whiteSpace=wrap;html=1;" vertex="1" parent="1">
          <mxGeometry x="840" y="264.5" width="60" height="126" as="geometry" />
        </mxCell>
        <mxCell id="StxeraYVBeR2UehlivjP-36" value="" style="endArrow=none;html=1;rounded=0;exitX=0.525;exitY=0;exitDx=0;exitDy=0;exitPerimeter=0;" edge="1" parent="1">
          <mxGeometry width="50" height="50" relative="1" as="geometry">
            <mxPoint x="710" y="326" as="sourcePoint" />
            <mxPoint x="840" y="326" as="targetPoint" />
          </mxGeometry>
        </mxCell>
        <mxCell id="StxeraYVBeR2UehlivjP-37" value="" style="endArrow=none;html=1;rounded=0;exitX=1.001;exitY=0.517;exitDx=0;exitDy=0;exitPerimeter=0;entryX=0.323;entryY=1;entryDx=0;entryDy=0;entryPerimeter=0;" edge="1" parent="1" source="StxeraYVBeR2UehlivjP-35" target="StxeraYVBeR2UehlivjP-1">
          <mxGeometry width="50" height="50" relative="1" as="geometry">
            <mxPoint x="980" y="340" as="sourcePoint" />
            <mxPoint x="140" y="250" as="targetPoint" />
            <Array as="points">
              <mxPoint x="960" y="330" />
              <mxPoint x="960" y="440" />
              <mxPoint x="80" y="440" />
              <mxPoint x="80" y="260" />
              <mxPoint x="120" y="260" />
              <mxPoint x="120" y="244" />
            </Array>
          </mxGeometry>
        </mxCell>
        <mxCell id="StxeraYVBeR2UehlivjP-38" value="" style="endArrow=none;html=1;rounded=0;entryX=0.685;entryY=1.007;entryDx=0;entryDy=0;entryPerimeter=0;" edge="1" parent="1" target="StxeraYVBeR2UehlivjP-1">
          <mxGeometry width="50" height="50" relative="1" as="geometry">
            <mxPoint x="120" y="260.5" as="sourcePoint" />
            <mxPoint x="200" y="280" as="targetPoint" />
            <Array as="points">
              <mxPoint x="120" y="280" />
            </Array>
          </mxGeometry>
        </mxCell>
      </root>
    </mxGraphModel>
  </diagram>
</mxfile>
